<svg xmlns="http://www.w3.org/2000/svg" width="29" height="28" viewBox="0 0 29 28"><path class="folder_1" d="M29.36 14.875q0 .484-.485 1.03l-5.25 6.19q-.672.796-1.883 1.35Q20.532 24 19.5 24h-17q-.53 0-.945-.2-.414-.204-.414-.673 0-.484.49-1.03l5.25-6.19q.67-.796 1.882-1.35Q9.968 14 11 14h17q.53 0 .945.203.414.203.414.672z"/><path class="folder_2" d="M24 9.5V12H11q-1.47 0-3.078.742-1.61.742-2.562 1.867L.016 20.89q0-.063-.008-.195T0 20.5v-15q0-1.437 1.03-2.47Q2.063 2 3.5 2h5q1.437 0 2.47 1.03Q12 4.063 12 5.5V6h8.5q1.437 0 2.47 1.03Q24 8.063 24 9.5z"/></svg>