<svg xmlns="http://www.w3.org/2000/svg" width="24" height="28" viewBox="0 0 24 28"><path fill="#444" d="M18.328 16.61q0-.782-.305-1.43t-.758-1.07-1.14-.767-1.29-.53-1.367-.36l-1.625-.375q-.47-.11-.688-.164t-.547-.18-.47-.25-.257-.328-.11-.47q0-1.202 2.25-1.202.67 0 1.202.187t.844.45.595.524.625.453.75.187q.734 0 1.18-.5t.445-1.205q0-.86-.876-1.556t-2.22-1.054-2.843-.36q-1.06 0-2.062.242t-1.866.73-1.39 1.36-.525 2.008q0 .95.297 1.66t.875 1.18 1.25.76 1.61.51l2.28.56q1.405.344 1.75.562.5.313.5.938 0 .61-.626 1.01t-1.64.398q-.798 0-1.43-.25t-1.017-.602-.71-.703-.72-.602-.844-.25q-.78 0-1.18.47t-.4 1.176q0 1.437 1.91 2.46t4.548 1.024q1.14 0 2.188-.29t1.915-.836 1.382-1.46.517-2.054zM24 20q0 2.484-1.758 4.242T18 26q-2.03 0-3.656-1.25Q13.14 25 12 25q-2.234 0-4.273-.867T4.21 21.79t-2.343-3.517T1 14q0-1.14.25-2.344Q0 10.03 0 8q0-2.484 1.758-4.242T6 2q2.03 0 3.656 1.25Q10.86 3 12 3q2.234 0 4.273.867T19.79 6.21t2.343 3.517T23 14q0 1.14-.25 2.344Q24 17.97 24 20z"/></svg>